<?xml version="1.0" encoding="utf-8"?>
<!-- Generator: Adobe Illustrator 26.0.2, SVG Export Plug-In . SVG Version: 6.00 Build 0)  -->
<svg version="1.1" id="Layer_1" xmlns="http://www.w3.org/2000/svg" xmlns:xlink="http://www.w3.org/1999/xlink" x="0px" y="0px"
	 viewBox="0 0 3300 2200" style="enable-background:new 0 0 3300 2200;" xml:space="preserve">
<style type="text/css">
	.st0{fill:#FFFFFF;}
	.st1{fill:none;stroke:#000000;stroke-width:0.5;}
	.st2{font-family:'Helvetica-Bold';}
	.st3{font-size:13px;}
	.st4{font-family:'Helvetica';}
	.st5{fill:none;stroke:#00AEEF;stroke-width:0.5;}
	.st6{fill:#27AAE1;}
	.st7{fill:none;stroke:#27AAE1;stroke-width:0.5;}
</style>
<g id="Notes">
	<rect id="artboard" class="st0" width="3300" height="2200"/>
	<line class="st1" x1="263" y1="292" x2="3036" y2="292"/>
	<text transform="matrix(1 0 0 1 263 322)" class="st2 st3">Weight/Scale Variations</text>
	<text transform="matrix(1 0 0 1 534.0633 322)" class="st4 st3">Ultralight</text>
	<text transform="matrix(1 0 0 1 843.7775 322)" class="st4 st3">Thin</text>
	<text transform="matrix(1 0 0 1 1139.035 322)" class="st4 st3">Light</text>
	<text transform="matrix(1 0 0 1 1427.0773 322)" class="st4 st3">Regular</text>
	<text transform="matrix(1 0 0 1 1723.4419 322)" class="st4 st3">Medium</text>
	<text transform="matrix(1 0 0 1 2016.1719 322)" class="st4 st3">Semibold</text>
	<text transform="matrix(1 0 0 1 2326.9705 322)" class="st4 st3">Bold</text>
	<text transform="matrix(1 0 0 1 2618.2659 322)" class="st4 st3">Heavy</text>
	<text transform="matrix(1 0 0 1 2917.5054 322)" class="st4 st3">Black</text>
	<line class="st1" x1="263" y1="1903" x2="3036" y2="1903"/>
	<g transform="matrix(1 0 0 1 263 1933)">
		<path d="M9.2,0.8c4.3,0,7.9-3.6,7.9-7.9c0-4.3-3.6-7.9-7.9-7.9c-4.3,0-7.9,3.6-7.9,7.9C1.4-2.7,5,0.8,9.2,0.8z M9.2-0.7
			c-3.5,0-6.4-2.8-6.4-6.4c0-3.6,2.8-6.4,6.4-6.4c3.6,0,6.4,2.8,6.4,6.4C15.6-3.5,12.8-0.7,9.2-0.7z M5.7-7.1c0,0.4,0.3,0.7,0.8,0.7
			h2.1v2.1c0,0.4,0.3,0.7,0.7,0.7c0.4,0,0.7-0.3,0.7-0.7v-2.1h2.1c0.4,0,0.7-0.3,0.7-0.7c0-0.4-0.3-0.7-0.7-0.7H10v-2.1
			c0-0.4-0.3-0.8-0.7-0.8c-0.4,0-0.7,0.3-0.7,0.8v2.1H6.4C6-7.8,5.7-7.5,5.7-7.1z"/>
	</g>
	<g transform="matrix(1 0 0 1 281.867 1933)">
		<path d="M11.7,2.9c5.4,0,10-4.5,10-10c0-5.4-4.5-10-10-10c-5.4,0-10,4.5-10,10C1.7-1.6,6.3,2.9,11.7,2.9z M11.7,1.2
			c-4.6,0-8.3-3.7-8.3-8.3c0-4.6,3.7-8.3,8.3-8.3c4.6,0,8.3,3.7,8.3,8.3C20-2.4,16.3,1.2,11.7,1.2z M7.2-7.1c0,0.5,0.3,0.8,0.8,0.8
			h2.9v2.9c0,0.5,0.3,0.8,0.8,0.8c0.5,0,0.8-0.3,0.8-0.8v-2.9h2.9c0.5,0,0.8-0.3,0.8-0.8c0-0.5-0.3-0.8-0.8-0.8h-2.9v-2.9
			c0-0.5-0.3-0.8-0.8-0.8c-0.5,0-0.8,0.3-0.8,0.8v2.9H8C7.5-7.9,7.2-7.5,7.2-7.1z"/>
	</g>
	<g transform="matrix(1 0 0 1 305.646 1933)">
		<path d="M15,5.7c7,0,12.7-5.8,12.7-12.7c0-7-5.8-12.7-12.7-12.7C8-19.8,2.3-14,2.3-7.1C2.3-0.1,8,5.7,15,5.7z M15,3.8
			C8.9,3.8,4.1-1,4.1-7.1c0-6,4.8-10.9,10.9-10.9c6,0,10.9,4.9,10.9,10.9C25.9-1,21,3.8,15,3.8z M9.2-7.1c0,0.5,0.4,0.9,0.9,0.9h3.9
			v4c0,0.5,0.4,0.9,0.9,0.9c0.5,0,0.9-0.4,0.9-0.9v-4h4c0.5,0,0.9-0.4,0.9-0.9c0-0.5-0.4-0.9-0.9-0.9h-4v-3.9c0-0.5-0.4-0.9-0.9-0.9
			c-0.5,0-0.9,0.4-0.9,0.9V-8h-3.9C9.6-8,9.2-7.6,9.2-7.1z"/>
	</g>
	<text transform="matrix(1 0 0 1 263 1953)" class="st2 st3">Design Variations</text>
	<text transform="matrix(1 0 0 1 263 1971)" class="st4 st3">Symbols are supported in up to nine weights and three scales.</text>
	<text transform="matrix(1 0 0 1 263 1989)" class="st4 st3">For optimal layout with text and other symbols, vertically align</text>
	<text transform="matrix(1 0 0 1 263 2007)" class="st4 st3">symbols with the adjacent text.</text>
	<line class="st5" x1="776" y1="1919" x2="776" y2="1933"/>
	<g transform="matrix(1 0 0 1 776 1933)">
		<path d="M3.3,0.2c0.5,0,0.8-0.2,1-0.7L5.5-4h5.8l1.3,3.4C12.7,0,13,0.2,13.5,0.2c0.5,0,0.8-0.3,0.8-0.8c0-0.2,0-0.3-0.1-0.5
			L9.7-13.4C9.4-14,9-14.3,8.4-14.3c-0.6,0-1,0.3-1.2,0.9L2.6-1.2C2.5-1,2.5-0.8,2.5-0.6C2.5-0.1,2.8,0.2,3.3,0.2z M6-5.5l2.4-6.6h0
			l2.4,6.6H6z"/>
	</g>
	<line class="st5" x1="793.2" y1="1919" x2="793.2" y2="1933"/>
	<text transform="matrix(1 0 0 1 776 1953)" class="st2 st3">Margins</text>
	<text transform="matrix(1 0 0 1 776 1971)" class="st4 st3">Leading and trailing margins on the left and right side of each symbol</text>
	<text transform="matrix(1 0 0 1 776 1989)" class="st4 st3">can be adjusted by modifying the x-location of the margin guidelines.</text>
	<text transform="matrix(1 0 0 1 776 2007)" class="st4 st3">Modifications are automatically applied proportionally to all</text>
	<text transform="matrix(1 0 0 1 776 2025)" class="st4 st3">scales and weights.</text>
	<g transform="matrix(1 0 0 1 1289 1933)">
		<path d="M2.8,1.9l1.7,1.7c0.9,0.9,1.8,0.8,2.8-0.2L18-8.4l-1-1L6.4,2.3c-0.4,0.4-0.7,0.5-1.2,0L4.1,1.1C3.6,0.7,3.7,0.3,4.1,0
			l11.5-10.8l-1-1L3-0.9C2.1,0,2,1,2.8,1.9z M9.3-16.3c-0.4,0.4-0.4,1-0.2,1.4c0.2,0.4,0.7,0.6,1.3,0.4c1.5-0.3,3-0.4,4.4,0.5
			l-0.6,1.5c-0.3,0.8-0.2,1.4,0.4,2l2.3,2.3c0.5,0.5,0.9,0.5,1.5,0.4L19.4-8l0.7,0.7l0,0.6c0,0.5,0.1,0.9,0.6,1.4l0.8,0.7
			c0.5,0.5,1.1,0.5,1.6,0l2.9-2.9c0.5-0.5,0.4-1.1,0-1.5L25-9.9c-0.5-0.5-0.8-0.6-1.3-0.6l-0.6,0l-0.6-0.6l0.2-1.1
			c0.1-0.6,0-1-0.6-1.6L19.9-16C16.6-19.3,12.1-19.2,9.3-16.3z M10.8-16c2.4-1.8,5.7-1.5,7.9,0.8l2.4,2.4c0.2,0.2,0.3,0.4,0.2,0.8
			L21-10.5l1.5,1.5l1-0.1c0.3,0,0.3,0,0.5,0.2l0.6,0.6l-2.4,2.4l-0.6-0.6c-0.2-0.2-0.2-0.3-0.2-0.5l0.1-1L20-9.5l-1.5,0.3
			c-0.3,0.1-0.5,0-0.7-0.2l-2-2c-0.3-0.2-0.3-0.4-0.1-0.8l0.9-2.1c-1.6-1.5-3.6-2.1-5.6-1.5C10.7-15.7,10.6-15.8,10.8-16z"/>
	</g>
	<text transform="matrix(1 0 0 1 1289 1953)" class="st2 st3">Exporting</text>
	<text transform="matrix(1 0 0 1 1289 1971)" class="st4 st3">Symbols should be outlined when exporting to ensure the</text>
	<text transform="matrix(1 0 0 1 1289 1989)" class="st4 st3">design is preserved when submitting to Xcode.</text>
	<text id="template-version" transform="matrix(1 0 0 1 2952.4141 1933)" class="st4 st3">Template v.3.0</text>
	<text transform="matrix(1 0 0 1 2865.4575 1951)" class="st4 st3">Requires Xcode 13 or greater</text>
	<text id="descriptive-name" transform="matrix(1 0 0 1 2917.4956 1969)" class="st4 st3">Generated from oval</text>
	<text transform="matrix(1 0 0 1 2912.4111 1987)" class="st4 st3">Typeset at 100 points</text>
	<text transform="matrix(1 0 0 1 263 726)" class="st4 st3">Small</text>
	<text transform="matrix(1 0 0 1 263 1156)" class="st4 st3">Medium</text>
	<text transform="matrix(1 0 0 1 263 1586)" class="st4 st3">Large</text>
</g>
<g id="Guides">
	<g id="H-reference" transform="matrix(1 0 0 1 339 696)">
		<path class="st6" d="M1,0h2.6l25.7-67.1H30v-3.3h-1.9L1,0z M11.7-24.5H47l-0.8-2.2H12.4L11.7-24.5z M55.1,0h2.6L30.6-70.5h-1.2
			v3.3L55.1,0z"/>
	</g>
	<line id="Baseline-S" class="st7" x1="263" y1="696" x2="3036" y2="696"/>
	<line id="Capline-S" class="st7" x1="263" y1="625.5" x2="3036" y2="625.5"/>
	<g id="H-reference_00000032624941782284333060000001960603175597606072_" transform="matrix(1 0 0 1 339 1126)">
		<path class="st6" d="M1,0h2.6l25.7-67.1H30v-3.3h-1.9L1,0z M11.7-24.5H47l-0.8-2.2H12.4L11.7-24.5z M55.1,0h2.6L30.6-70.5h-1.2
			v3.3L55.1,0z"/>
	</g>
	<line id="Baseline-M" class="st7" x1="263" y1="1126" x2="3036" y2="1126"/>
	<line id="Capline-M" class="st7" x1="263" y1="1055.5" x2="3036" y2="1055.5"/>
	<g id="H-reference_00000074425689044760743970000005334181965806371490_" transform="matrix(1 0 0 1 339 1556)">
		<path class="st6" d="M1,0h2.6l25.7-67.1H30v-3.3h-1.9L1,0z M11.7-24.5H47l-0.8-2.2H12.4L11.7-24.5z M55.1,0h2.6L30.6-70.5h-1.2
			v3.3L55.1,0z"/>
	</g>
	<line id="Baseline-L" class="st7" x1="263" y1="1556" x2="3036" y2="1556"/>
	<line id="Capline-L" class="st7" x1="263" y1="1485.5" x2="3036" y2="1485.5"/>
	<line id="left-margin-Ultralight-S" class="st5" x1="508.2" y1="600.8" x2="508.2" y2="720.1"/>
	<line id="right-margin-Ultralight-S" class="st5" x1="611.2" y1="600.8" x2="611.2" y2="720.1"/>
	<line id="left-margin-Regular-S" class="st5" x1="1392.6" y1="600.8" x2="1392.6" y2="720.1"/>
	<line id="right-margin-Regular-S" class="st5" x1="1507.1" y1="600.8" x2="1507.1" y2="720.1"/>
	<line id="left-margin-Black-S" class="st5" x1="2871.9" y1="600.8" x2="2871.9" y2="720.1"/>
	<line id="right-margin-Black-S" class="st5" x1="2994.9" y1="600.8" x2="2994.9" y2="720.1"/>
</g>
<g id="Symbols">
	<g id="Black-S" transform="matrix(1 0 0 1 2871.93 696)">
		<path d="M6.8-35.3c0,24.7,21.9,41.1,54.6,41.1s54.6-16.4,54.6-41.1c0-24.6-21.9-41-54.6-41S6.8-59.9,6.8-35.3z M22.7-35.3
			c0-15.1,15.5-25.2,38.8-25.2s38.8,10.1,38.8,25.2S84.8-10,61.5-10S22.7-20.1,22.7-35.3z"/>
		<g>
			<path d="M40.7-42.8h-7l-0.7,4.9c0.4-0.1,0.8-0.1,1.5-0.1c1.4,0,2.8,0.3,4,1c1.4,0.9,2.6,2.5,2.6,4.9c0,3.7-2.9,6.5-6.9,6.5
				c-2,0-3.7-0.6-4.6-1.2l0.6-2c0.8,0.5,2.3,1.1,3.9,1.1c2.4,0,4.4-1.6,4.4-4.1c0-2.5-1.6-4.2-5.3-4.2c-1,0-1.9,0.1-2.5,0.2l1.2-9.2
				h8.8V-42.8z"/>
			<path d="M56.4-35.6c0,6.5-2.3,10.1-6.4,10.1c-3.6,0-6-3.5-6.1-9.8c0-6.4,2.7-9.9,6.4-9.9C54.2-45.2,56.4-41.7,56.4-35.6z
				 M46.4-35.3c0,5,1.5,7.8,3.7,7.8c2.5,0,3.8-3.1,3.8-8c0-4.7-1.2-7.8-3.7-7.8C48-43.3,46.4-40.5,46.4-35.3z"/>
			<path d="M58.9-37.7c0-1.1,0.7-1.8,1.7-1.8s1.6,0.8,1.7,1.8c0,1-0.7,1.8-1.7,1.8C59.6-35.9,58.9-36.7,58.9-37.7z M58.9-27.3
				c0-1.1,0.7-1.8,1.7-1.8s1.6,0.8,1.7,1.8c0,1-0.7,1.8-1.7,1.8C59.6-25.5,58.9-26.3,58.9-27.3z"/>
			<path d="M75.6-42.8h-7l-0.7,4.9c0.4-0.1,0.8-0.1,1.5-0.1c1.4,0,2.8,0.3,4,1c1.4,0.9,2.6,2.5,2.6,4.9c0,3.7-2.9,6.5-6.9,6.5
				c-2,0-3.7-0.6-4.6-1.2l0.6-2c0.8,0.5,2.3,1.1,3.9,1.1c2.4,0,4.4-1.6,4.4-4.1c0-2.5-1.6-4.2-5.3-4.2c-1,0-1.9,0.1-2.5,0.2l1.2-9.2
				h8.8V-42.8z"/>
			<path d="M91.3-35.6c0,6.5-2.3,10.1-6.4,10.1c-3.6,0-6-3.5-6.1-9.8c0-6.4,2.7-9.9,6.4-9.9C89.1-45.2,91.3-41.7,91.3-35.6z
				 M81.4-35.3c0,5,1.5,7.8,3.7,7.8c2.5,0,3.8-3.1,3.8-8c0-4.7-1.2-7.8-3.7-7.8C82.9-43.3,81.4-40.5,81.4-35.3z"/>
		</g>
	</g>
	<g id="Regular-S" transform="matrix(1 0 0 1 1392.62 696)">
		<path d="M6.8-35.3c0,22.2,20.8,37.9,50.4,37.9c29.5,0,50.4-15.7,50.4-37.9S86.8-73.1,57.2-73.1C27.7-73.1,6.8-57.4,6.8-35.3z
			 M13.9-35.3c0-18,18-30.8,43.4-30.8c25.4,0,43.4,12.8,43.4,30.8c0,18.1-18,30.9-43.4,30.9C31.8-4.4,13.9-17.2,13.9-35.3z"/>
		<g>
			<path d="M34.3-46.3h-8l-0.8,6.6c0.5-0.1,0.9-0.2,1.7-0.2c1.6,0,3.2,0.4,4.5,1.4c1.6,1.1,3,3.4,3,6.6c0,5-3.3,8.8-7.8,8.8
				c-2.3,0-4.2-0.8-5.2-1.6l0.7-2.7c0.9,0.6,2.6,1.4,4.5,1.4c2.7,0,5-2.1,5-5.6c0-3.3-1.8-5.7-6-5.7c-1.2,0-2.1,0.2-2.9,0.3
				l1.4-12.4h10V-46.3z"/>
			<path d="M52.3-36.6c0,8.7-2.6,13.6-7.3,13.6c-4.1,0-6.9-4.7-6.9-13.2c0-8.6,3-13.4,7.3-13.4C49.8-49.6,52.3-44.8,52.3-36.6z
				 M40.9-36.2c0,6.7,1.7,10.5,4.3,10.5c2.9,0,4.3-4.2,4.3-10.7c0-6.3-1.3-10.5-4.3-10.5C42.7-46.9,40.9-43.2,40.9-36.2z"/>
			<path d="M55.1-39.5c0-1.5,0.8-2.5,1.9-2.5s1.9,1,1.9,2.5c0,1.4-0.7,2.5-1.9,2.5C55.9-37,55.1-38.1,55.1-39.5z M55.1-25.5
				c0-1.5,0.8-2.5,1.9-2.5s1.9,1,1.9,2.5c0,1.4-0.7,2.5-1.9,2.5C55.9-23,55.1-24.1,55.1-25.5z"/>
			<path d="M74.1-46.3h-8l-0.8,6.6c0.5-0.1,0.9-0.2,1.7-0.2c1.6,0,3.2,0.4,4.5,1.4c1.6,1.1,3,3.4,3,6.6c0,5-3.3,8.8-7.8,8.8
				c-2.3,0-4.2-0.8-5.2-1.6l0.7-2.7c0.9,0.6,2.6,1.4,4.5,1.4c2.7,0,5-2.1,5-5.6c0-3.3-1.8-5.7-6-5.7c-1.2,0-2.1,0.2-2.9,0.3
				l1.4-12.4h10V-46.3z"/>
			<path d="M92-36.6c0,8.7-2.6,13.6-7.3,13.6c-4.1,0-6.9-4.7-6.9-13.2c0-8.6,3-13.4,7.3-13.4C89.5-49.6,92-44.8,92-36.6z M80.7-36.2
				c0,6.7,1.7,10.5,4.3,10.5c2.9,0,4.3-4.2,4.3-10.7c0-6.3-1.3-10.5-4.3-10.5C82.5-46.9,80.7-43.2,80.7-36.2z"/>
		</g>
	</g>
	<g id="Ultralight-S" transform="matrix(1 0 0 1 508.183 696)">
		<path d="M6.8-35.3c0,19.5,18.6,34,44.7,34c26.1,0,44.7-14.5,44.7-34s-18.6-34-44.7-34C25.4-69.2,6.8-54.7,6.8-35.3z M9.1-35.3
			C9.1-53.4,26.8-67,51.5-67C76.3-67,94-53.4,94-35.3C94-17.1,76.3-3.5,51.5-3.5C26.8-3.5,9.1-17.1,9.1-35.3z"/>
		<g>
			<path d="M31.2-41.4h-6.9l-0.7,4.3c0.4-0.1,0.8-0.1,1.5-0.1c1.4,0,2.8,0.3,3.9,0.9c1.4,0.7,2.6,2.2,2.6,4.3c0,3.2-2.8,5.7-6.7,5.7
				c-2,0-3.6-0.5-4.5-1l0.6-1.7c0.7,0.4,2.2,0.9,3.8,0.9c2.3,0,4.3-1.4,4.3-3.6c0-2.1-1.6-3.7-5.2-3.7c-1,0-1.8,0.1-2.5,0.2l1.2-8
				h8.6V-41.4z"/>
			<path d="M46.6-35.2c0,5.6-2.3,8.8-6.3,8.8c-3.5,0-5.9-3-6-8.5c0-5.6,2.6-8.6,6.3-8.6C44.4-43.6,46.6-40.5,46.6-35.2z M36.8-34.9
				c0,4.3,1.4,6.8,3.7,6.8c2.5,0,3.7-2.7,3.7-6.9c0-4.1-1.1-6.8-3.7-6.8C38.4-41.8,36.8-39.4,36.8-34.9z"/>
			<path d="M49-37c0-0.9,0.7-1.6,1.7-1.6c1,0,1.6,0.7,1.6,1.6c0,0.9-0.6,1.6-1.7,1.6C49.7-35.4,49-36.1,49-37z M49-28
				c0-0.9,0.7-1.6,1.7-1.6c1,0,1.6,0.7,1.6,1.6c0,0.9-0.6,1.6-1.7,1.6C49.7-26.4,49-27.1,49-28z"/>
			<path d="M65.3-41.4h-6.9l-0.7,4.3c0.4-0.1,0.8-0.1,1.5-0.1c1.4,0,2.8,0.3,3.9,0.9c1.4,0.7,2.6,2.2,2.6,4.3c0,3.2-2.8,5.7-6.7,5.7
				c-2,0-3.6-0.5-4.5-1l0.6-1.7c0.7,0.4,2.2,0.9,3.8,0.9c2.3,0,4.3-1.4,4.3-3.6c0-2.1-1.6-3.7-5.2-3.7c-1,0-1.8,0.1-2.5,0.2l1.2-8
				h8.6V-41.4z"/>
			<path d="M80.7-35.2c0,5.6-2.3,8.8-6.3,8.8c-3.5,0-5.9-3-6-8.5c0-5.6,2.6-8.6,6.3-8.6C78.6-43.6,80.7-40.5,80.7-35.2z M71-34.9
				c0,4.3,1.4,6.8,3.7,6.8c2.5,0,3.7-2.7,3.7-6.9c0-4.1-1.1-6.8-3.7-6.8C72.5-41.8,71-39.4,71-34.9z"/>
		</g>
	</g>
</g>
</svg>
